<svg xmlns="http://www.w3.org/2000/svg" width="2249" height="760" fill="none" viewBox="0 0 2249 760"><path fill="#EFEFEF" d="M218.8 2.93332C215.333 8.53332 197.067 41.8667 172.4 88C140.133 147.867 127.733 170.267 126 170.933C124.4 171.467 95.8667 118.8 62.8 54.6667C49.8666 29.3333 38.1333 7.06666 36.8 4.93332C34.5333 1.59999 30.6666 -1.14739e-05 30.6666 2.53332C30.6666 10.6667 4.39998 200.533 1.46665 213.6C0.39998 218.133 0.533313 218.8 3.19998 219.467C4.79998 219.867 9.73331 220 14 219.733L22 219.333L22.2666 212C23.6 182.8 32.9333 87.7333 36.8 65.3333C37.6 60.9333 37.6 60.8 39.6 63.3333C40.6666 64.8 50.5333 84 61.6 106C90.9333 164.667 118.933 218.667 120 218.667C120.533 218.667 131.2 198.133 143.733 172.933C166.533 127.067 190.8 81.8667 199.733 68.1333L204.533 60.6667L205.6 67.3333C206.667 75.2 207.733 86.4 214.667 161.067C218.4 200.267 220.533 218.133 221.6 218.933C222.533 219.467 228.933 220 235.733 220C246.667 220 248 219.733 248 217.6C248 216.267 245.333 192.4 242 164.533C238.8 136.8 233.733 91.7333 230.667 64.4C223.733 0.266655 222.933 -3.60001 218.8 2.93332Z"/><path fill="#EFEFEF" d="M366.133 7.59999C364.133 11.8667 352.933 36.9333 341.333 63.3333C316.667 119.467 300.4 156 283.733 191.867C274.133 212.4 272 217.867 273.467 218.8C274.533 219.467 279.467 219.867 284.533 219.733L293.6 219.333L301.333 197.333C311.467 168.267 321.2 142.667 323.467 138.933C325.333 136.133 326.267 136 340.533 136C348.8 136 366.4 136.4 379.733 136.933L403.867 137.733L418.533 174.533C426.533 194.8 433.6 213.067 434.267 215.333L435.6 219.333L452 219.733C464.8 220 468.133 219.733 467.6 218.4C467.2 217.467 459.467 199.867 450.267 179.333C441.2 158.8 425.2 121.6 414.8 96.6666C377.867 8.66665 374.667 1.46666 371.333 0.399993C370.533 0.133326 368.267 3.46666 366.133 7.59999ZM384.8 89.4666C390.933 103.733 396.133 116.933 396.267 118.8C396.667 121.867 396.133 122 386.667 123.067C375.6 124.267 338 123.333 333.6 121.733C330.933 120.667 331.467 119.2 345.467 86.6666C353.6 68 361.2 50.5333 362.267 48L364.267 43.3333L368.933 53.3333C371.467 58.8 378.667 75.0666 384.8 89.4666Z"/><path fill="#EFEFEF" d="M1063.87 0.266655C1063.73 0.533322 1063.2 38.8 1062.67 85.3333C1061.6 161.467 1060.4 194.4 1057.87 213.733L1057.07 220.133L1068.27 219.733C1078.53 219.333 1079.33 219.067 1078.93 216.667C1077.73 209.067 1077.07 54.6667 1078.27 54.6667C1080.93 54.6667 1145.47 122.933 1188.53 171.2C1222 208.8 1236 224 1237.33 224C1239.07 224 1240 200.667 1241.33 112C1242.13 65.4667 1243.07 22.4 1243.47 16.2667L1244.4 5.33332H1234.8H1225.2L1226.13 86.6667C1226.67 134.933 1226.53 168 1225.87 168C1222.67 168 1217.07 162 1101.47 37.6C1073.6 7.46666 1064.53 -1.46668 1063.87 0.266655Z"/><path fill="#EFEFEF" d="M1838.67 8.00004C1813.33 12.4 1790.53 16.2667 1788 16.8C1784.13 17.4667 1787.47 18.5334 1809.33 23.4667C1858.27 34.2667 1895.47 46.4 1933.33 63.8667C2020.53 104 2099.73 171.733 2153.2 252.133C2167.33 273.2 2177.47 292 2180 301.067C2181.87 308.533 2180.8 313.067 2175.2 321.467L2170.67 328.267L2179.6 327.333C2194.8 325.867 2206.8 322.667 2210.27 319.2C2212.67 316.8 2213.33 314.667 2213.33 309.467C2213.33 286.133 2170.4 207.467 2133.33 162.667C2120.53 147.333 2090.27 116.8 2074 102.667C2029.47 64.5334 1979.6 33.7334 1926.53 12C1906.67 3.86671 1894.4 3.98457e-05 1888.8 0.133373C1886.53 0.133373 1864 3.73337 1838.67 8.00004Z"/><path fill="#EFEFEF" d="M1617.33 3.86663C1575.33 13.2 1546.4 39.8666 1535.73 79.3333C1531.6 94.9333 1531.6 131.867 1535.87 147.333C1545.47 183.067 1573.07 210.267 1610 220.267C1619.33 222.8 1624.27 223.067 1648.67 223.067C1673.33 223.2 1677.87 222.8 1687.33 220.267C1702.13 216.267 1720.4 207.067 1730.27 198.933C1772.93 163.333 1778.4 84.8 1741.47 39.2C1728.8 23.6 1707.87 10.9333 1685.2 5.19997C1668.93 1.06663 1633.2 0.399968 1617.33 3.86663ZM1678 16.5333C1695.87 22.6666 1708.13 31.8666 1717.73 46.4C1728.8 63.0666 1732.8 75.0666 1734.67 97.7333C1738.13 139.067 1729.33 170.8 1708.67 191.467C1691.73 208.533 1672 215.467 1644.67 214.267C1608.53 212.667 1583.33 195.2 1570.27 163.2C1564.13 147.867 1563.33 142.267 1563.47 113.333C1563.47 81.6 1564.67 75.6 1574 56.4C1584.8 34.5333 1604 19.3333 1628 14C1641.73 10.9333 1664.67 12.1333 1678 16.5333Z"/><path fill="#EFEFEF" d="M813.333 112.667V220H870H926.667V211.2C926.667 204 926.267 202.533 924.667 203.2C918.8 205.333 845.467 208.667 842.667 206.8C840.933 205.6 840.667 193.067 841.067 105.333L841.467 5.33332H827.333H813.333V112.667Z"/><path fill="#EFEFEF" d="M974.8 6.26666L968.933 6.79999L969.867 17.0667C972.667 50.9333 971.733 210 968.667 217.6C967.733 219.867 969.067 220 983.867 220H1000.13L999.067 210.933C998.533 206 998 161.733 998 112.667C998 63.4667 998.533 19.3333 999.067 14.2667L1000.13 5.33332L990.4 5.59999C985.067 5.73332 978 5.99999 974.8 6.26666Z"/><path fill="#EFEFEF" d="M1303.6 6.13332C1301.33 6.79998 1301.2 7.99998 1302.27 19.0667C1303.6 34.5333 1303.47 191.067 1302.13 207.867L1301.07 220.267L1354.93 219.6C1408.27 219.067 1408.8 219.067 1421.33 215.467C1437.2 210.933 1446.13 206.933 1456.67 199.333C1474.27 186.8 1488 167.6 1494.53 146.267C1500.8 125.733 1500.8 92 1494.67 69.4667C1485.87 38 1465.07 17.8667 1432.67 9.19998C1422.67 6.53332 1418.27 6.26665 1364 5.86665C1332.13 5.73332 1304.93 5.86665 1303.6 6.13332ZM1410 20.8C1437.33 25.4667 1457.6 44.1333 1464.67 71.4667C1470 92 1470 126.667 1464.67 147.333C1457.33 175.6 1438.4 196 1410.93 205.467C1396.67 210.4 1344.93 212.133 1334.4 208.133L1330.93 206.8L1330 171.067C1328.53 119.333 1330 24.1333 1332.27 21.7333C1336.67 17.4667 1386.93 16.8 1410 20.8Z"/><path fill="#EFEFEF" d="M458.667 15.4667V24.4L467.733 23.6C472.667 23.0667 487.6 22.2667 501.067 21.8667L525.333 20.9333V120.4V220H539.467H553.467L552.533 119.867L551.6 19.7333L563.467 20.5333C570 20.9333 581.6 21.6 589.333 22C597.067 22.4 606.8 23.0667 611.067 23.6L618.667 24.4V15.4667V6.66666H538.667H458.667V15.4667Z"/><path fill="#EFEFEF" d="M655.2 11.6C656.667 21.3334 657.467 143.733 656.267 180.667C655.6 201.2 655.333 218.267 655.733 218.667C656 219.067 681.067 219.467 711.467 219.733L766.667 220.133V212V203.733L759.067 204.533C747.867 205.733 706.4 208 694.4 208H684V161.067V114.267L721.333 115.2L758.667 116V108.4C758.667 104.133 758.133 100 757.6 99.2C756.933 98.2667 753.467 98.1334 746.667 98.6667C741.2 99.2 724.8 100.133 710.4 100.667L684 101.6V60.1334V18.6667H688.4C690.667 18.6667 707.733 19.6 726 20.6667C744.4 21.7334 760.933 22.6667 763.067 22.6667C766.533 22.6667 766.667 22.5334 766.667 14.6667V6.66668H710.533H654.4L655.2 11.6Z"/><path fill="#EFEFEF" d="M1914.13 132.267C1938.8 157.333 1954.8 177.2 1970.4 202.133C1978.8 215.6 1988.27 234.4 1987.73 236.267C1987.47 237.067 1970.13 219.467 1949.33 197.2C1898.13 142.533 1884.8 128.933 1884.27 130.533C1882.4 136.267 1892.8 164 1912.13 204.133C1920.13 220.667 1926.67 234.533 1926.67 235.067C1926.67 235.6 1922.27 236 1916.8 236C1907.47 236 1906.67 236.267 1903.47 240C1895.6 249.467 1896.13 263.467 1905.07 280.533C1912.27 294.267 1924 305.333 1939.07 312.533C1957.47 321.467 1965.33 323.2 1988 323.067C2005.47 323.067 2008.4 322.8 2017.6 319.6L2028 316L2034.93 318.8C2050.53 324.933 2062.27 326.8 2089.47 327.6C2117.6 328.4 2122.13 327.467 2111.07 323.067C2097.07 317.733 2078.93 307.733 2072 301.733C2056.93 288.8 2047.07 274.933 2026.13 237.333C2018.93 224.533 2009.73 209.067 2005.73 202.933C1996 188.267 1970 162.267 1950.4 147.6C1935.07 136.133 1901.07 114.667 1898.27 114.667C1897.33 114.667 1904.53 122.667 1914.13 132.267ZM1944.67 251.067C1964.93 260.533 1990.53 280.133 1994.27 288.933C2000.4 303.733 1989.47 312.267 1970.53 307.467C1947.6 301.467 1931.87 284.133 1929.73 262.267C1929.07 254.667 1929.33 253.333 1931.87 250.8C1935.33 247.333 1936.4 247.333 1944.67 251.067Z"/><path fill="#EFEFEF" d="M464.933 292.933C464.4 293.333 464 304.133 464 316.933C464 329.6 463.467 340 462.8 340C462.133 340 460.933 339.067 459.867 337.867C458.933 336.8 455.733 334.533 452.8 333.067C445.467 329.333 435.6 330.267 427.067 335.467C410.133 346 407.467 375.6 422 391.6C427.2 397.467 428 397.867 435.733 398.4C447.867 399.2 452.8 397.867 459.333 391.867L465.2 386.533L465.6 391.6C466 396.133 466.4 396.667 470.133 397.067L474.267 397.467L475.067 363.2C475.6 344.267 476 320.533 476 310.4V292H470.933C468.133 292 465.333 292.4 464.933 292.933ZM457.333 341.2C466.4 350.667 467.867 368.8 460.667 383.467C456.533 391.867 451.067 396 444 396C432 396 424.933 385.333 425.067 367.333C425.067 354.933 426.8 347.2 430.8 342C434.4 337.467 437.733 336.133 445.867 336.133C451.733 336 452.933 336.533 457.333 341.2Z"/><path fill="#EFEFEF" d="M1090.67 345.467V398.8L1095.73 398.4L1100.67 398L1101.6 372.933C1102.53 345.067 1103.2 342.667 1111.33 339.2C1116.67 337.067 1124.4 336.8 1128.13 338.667C1133.87 341.867 1135.07 347.333 1135.73 372.933L1136.27 397.067L1139.6 398C1141.33 398.4 1143.33 398.4 1144 398C1146 396.8 1145.6 347.067 1143.6 341.467C1141.47 335.333 1132.8 330.667 1123.73 330.667C1116.53 330.667 1113.87 331.733 1106.4 337.6L1101.33 341.6V316.8V292H1096H1090.67V345.467Z"/><path fill="#EFEFEF" d="M1.33325 350V397.333H7.33325H13.3333V373.2V349.067L31.0666 349.467C48.5333 350 48.6666 350 49.0666 346.933C49.4666 344 49.3333 344 32.1333 344C16.2666 344 14.6666 343.733 13.3333 341.467C11.5999 338.133 11.5999 316 13.3333 311.333L14.6666 307.733L30.3999 308.667C47.8666 309.733 51.9999 309.067 51.9999 305.2C51.9999 302.8 50.7999 302.667 26.6666 302.667H1.33325V350Z"/><path fill="#EFEFEF" d="M517.333 305.333C517.333 309.067 521.867 309.867 536.133 308.667L548 307.733V352.4C548 386.933 548.4 397.2 549.733 397.733C550.533 398 553.333 398 555.867 397.6L560.4 396.933L559.6 352.533L558.8 308.133L573.733 308.4C588.267 308.667 588.667 308.533 589.067 305.6L589.467 302.667H553.467C518.4 302.667 517.333 302.8 517.333 305.333Z"/><path fill="#EFEFEF" d="M194 314.933C189.6 317.2 188 320.267 188 325.6C188 329.867 187.333 330.933 183.867 332.667C180.533 334.4 180.133 335.2 181.467 336.8C182.267 337.867 184.4 338.667 186.133 338.667C187.733 338.667 189.467 339.067 189.733 339.6C190 340.267 189.867 349.067 189.333 359.333C187.6 393.333 189.867 398.667 206.133 398.667C210.933 398.667 214.667 398.133 214.667 397.333C214.667 396.533 212.933 396 210.8 396C208.533 396 205.2 394.667 203.067 392.8L199.333 389.6L198.933 364.933L198.533 340.267L206.133 339.2C216.267 337.6 217.2 334.933 207.733 334.4L200.667 334L200.267 323.6C199.867 312.933 199.2 312 194 314.933Z"/><path fill="#EFEFEF" d="M780 315.733C777.733 317.467 776.8 320 776.267 325.2C775.733 331.6 775.333 332.267 771.867 332.933C766.267 334 766.667 338.4 772.267 338.933L776.667 339.333V365.867V392.267L780.4 395.467C783.6 398.133 785.6 398.667 793.467 398.667C799.333 398.667 802.533 398.133 802 397.333C801.6 396.533 799.467 396 797.2 396C795.067 396 792.133 394.8 790.8 393.467C785.867 388.533 784.267 371.067 786.533 348L787.333 339.333L793.867 338.667C803.067 337.733 803.467 334.933 794.4 334.4L787.333 334L786.933 323.6C786.533 312.533 785.467 311.333 780 315.733Z"/><path fill="#EFEFEF" d="M1054.4 315.467C1051.2 317.067 1050.67 318.267 1050.67 323.333C1050.67 331.067 1049.6 333.333 1046 333.333C1043.07 333.333 1040.67 336.267 1042.27 337.867C1042.8 338.267 1044.8 338.667 1046.93 338.667H1050.67V363.333C1050.67 396.4 1051.73 398.667 1068.53 398.667C1073.47 398.667 1077.33 398.133 1077.33 397.333C1077.33 396.533 1075.87 396 1074 396C1068.93 396 1062.8 392.4 1061.87 388.8C1061.47 387.067 1061.07 375.333 1060.93 362.533L1060.67 339.333L1067.73 338.533C1071.6 338 1075.2 337.2 1075.73 336.667C1077.33 335.067 1072.67 333.333 1066.8 333.333H1060.93L1061.87 325.6C1063.2 313.6 1061.6 311.467 1054.4 315.467Z"/><path fill="#EFEFEF" d="M74 332.533C67.6 334.4 62.6667 338.533 62.6667 342.133C62.6667 344.667 64.5333 344.533 66.8 341.867C70.2667 337.733 76.2667 335.733 83.2 336.4C92.2667 337.2 97.3333 342.667 97.3333 351.333C97.3333 358.667 95.3333 360.133 81.7333 363.067C76.5333 364.267 70.1333 366.133 67.4667 367.2C58.8 370.8 54.8 382 59.2 390.533C64.1333 400 76.5333 402 90 395.467C97.3333 391.733 97.8667 391.733 99.4667 394C100.8 395.733 103.6 396.667 108.933 397.067L116.667 397.6L112.667 394.267L108.667 390.933L108 367.067C107.333 344.933 107.067 343.067 104.267 338.933C102.533 336.667 100 334 98.6667 333.333C94.2667 330.933 81.0667 330.533 74 332.533ZM97.0667 374.267C97.4667 385.2 96.2667 388.4 90.2667 392C79.0667 398.933 67.8667 391.333 69.3333 378C69.7333 373.467 74.8 369.333 83.2 366.667C96 362.667 96.5333 362.933 97.0667 374.267Z"/><path fill="#EFEFEF" d="M138.267 334C132.8 337.867 128 346 128 351.6C128 360 133.467 365.067 148.533 370.667C161.6 375.6 164.8 383.467 156.8 391.467C150 398.267 145.067 397.733 133.067 389.067C130.4 387.067 129.867 387.467 128.667 392.267C127.467 397.2 131.6 399.067 144 399.2C151.733 399.333 155.067 398.667 158.667 396.533C165.867 392.4 169.333 386.267 169.333 377.733C169.333 368.133 165.333 364 152.4 360.133C141.6 356.933 138.4 354 138.4 347.333C138.4 335.733 152.667 331.2 160.8 340.133C163.467 343.067 165.333 341.6 165.333 336.533C165.333 332.8 160.267 330.667 150.933 330.667C144.933 330.667 142.267 331.467 138.267 334Z"/><path fill="#EFEFEF" d="M279.733 332.533C272.8 335.067 268 338.4 268 340.667C268 343.2 268.133 343.2 275.467 339.333C283.867 334.8 291.733 334.8 297.2 339.467C302.267 343.733 304.533 351.067 302.267 355.867C300.533 359.467 298.933 360.133 280.933 364.667C270 367.467 264.4 371.733 263.2 378.267C262 384.533 264.667 392.533 268.933 395.867C274.133 400.133 286.667 399.733 295.867 395.067C302.267 392 303.067 391.867 304.267 393.733C306 396.933 314.133 398.8 318.4 397.067C321.867 395.6 321.867 395.467 318.933 395.067C317.333 394.667 315.333 393.333 314.667 392C314 390.667 313.333 380.667 313.467 369.733C313.6 348.4 312.933 343.867 309.2 338.533C304.267 331.467 290.4 328.8 279.733 332.533ZM303.467 367.467C305.067 373.733 303.2 383.867 299.867 387.467C292.267 395.6 283.333 396.933 277.2 390.8C272.4 386 272 379.333 276.133 374.133C279.6 369.733 282.933 368 291.333 365.867C301.2 363.467 302.533 363.6 303.467 367.467Z"/><path fill="#EFEFEF" d="M362.267 332.667C360.267 333.733 356.933 335.733 355.067 337.333C350.533 340.8 349.6 340.667 349.067 336.267C348.8 333.333 347.867 332.533 344.533 332.267L340.4 331.867L339.6 340.933C339.067 345.867 338.667 360.667 338.667 373.6V397.333H344H349.333V382.933C349.333 362.933 351.333 346.933 354.267 343.733C363.2 333.867 379.333 336 382.533 347.6C383.333 350.4 384 362.667 384 374.933V397.333H388.533C392.933 397.333 392.933 397.2 393.867 390.267C394.267 386.533 394.667 375.2 394.667 365.333C394.667 343.067 392.667 337.333 383.733 333.333C376.933 330.267 367.467 329.867 362.267 332.667Z"/><path fill="#EFEFEF" d="M615.333 333.2C613.2 334.533 609.867 337.333 608 339.333L604.667 342.933L604 337.733C603.333 332.933 603.067 332.667 598.4 332.267L593.333 331.867V343.067C593.333 349.2 593.733 364.267 594.267 376.4L595.067 398.667H598.933C601.6 398.667 602.667 398 602.8 396.267C603.2 380.8 605.2 350.8 606 349.067C607.467 345.467 615.2 341.333 620.4 341.333C625.333 341.333 626.667 339.733 626.667 333.867C626.667 331.2 626 330.667 623.067 330.667C620.933 330.667 617.6 331.733 615.333 333.2Z"/><path fill="#EFEFEF" d="M727.067 333.2C719.6 336.667 716 342.667 716 351.333C716 361.733 719.467 365.2 735.733 370.8C745.867 374.267 748 376.533 748 383.467C748 388 747.333 389.733 744.4 391.867C742.533 393.467 739.6 395.067 738 395.467C733.733 396.533 724.8 393.867 722 390.667C718.533 386.8 716 387.333 716 392C716 398.267 724.667 400.8 738.267 398.667C750.133 396.667 757.333 388.4 757.333 376.667C757.333 368.933 754.133 365.467 743.2 361.467C732.8 357.467 727.467 354.133 725.867 350.4C721.2 339.467 735.333 331.067 745.467 338.533C750.267 342 751.6 342 752.667 338.533C754.133 333.867 750.4 331.467 741.067 331.067C734.8 330.667 731.2 331.2 727.067 333.2Z"/><path fill="#EFEFEF" d="M938 332.667C931.733 336 923.867 344.133 921.2 350C918.133 356.533 917.867 368.933 920.667 378.267C922.933 385.867 930.133 393.467 938.533 396.933C944.667 399.6 960.533 399.733 966.667 397.067C973.333 394.267 979.733 388.4 982.667 382.533C984.8 378.667 985.333 374.667 985.333 365.6C985.333 355.067 984.933 352.8 981.6 346.533C978.533 340.533 976.533 338.667 970.4 335.6C960.933 330.667 944.4 329.2 938 332.667ZM963.467 337.2C965.733 338.533 968.667 342 969.867 344.667C973.067 351.467 974.667 365.2 973.333 374.667C970.8 392.4 955.467 400.8 941.067 392.267C932.933 387.467 929.067 371.733 932 354.533C933.467 345.733 934.267 344.133 938.933 339.6C943.733 335.067 944.8 334.667 951.733 334.667C956.8 334.667 960.667 335.467 963.467 337.2Z"/><path fill="#EFEFEF" d="M1020.93 337.2C1016.93 340.933 1013.47 344 1013.2 344C1012.93 344 1012.8 341.333 1013.07 338L1013.6 332H1008.13H1002.67V364.533C1002.67 385.333 1003.2 397.467 1004 398C1004.8 398.533 1007.2 398.533 1009.33 398L1013.33 397.067V376C1013.33 364.4 1013.87 353.467 1014.67 351.733C1017.47 344.8 1020.67 342.4 1028.13 341.6C1035.33 340.667 1035.33 340.667 1035.33 336C1035.33 331.867 1034.93 331.333 1031.73 330.933C1028.8 330.533 1026.53 332 1020.93 337.2Z"/><path fill="#EFEFEF" d="M641.333 359.333V386.8L647.333 392.667C653.2 398.667 653.333 398.667 662.267 398.667C672 398.667 681.333 395.333 683.733 391.333C685.333 388.267 688 389.867 688 394C688 398 689.6 398.933 694 397.867L697.333 397.067V364.4V331.6L693.2 332.533C690.933 332.933 688.667 333.333 688.133 333.333C687.733 333.333 687.333 340.667 687.333 349.6C687.333 370.4 685.867 380.133 682.133 385.6C676.667 393.867 663.6 394.8 656.133 387.467C652.8 384 652.8 383.867 652.267 358L651.733 332H646.533H641.333V359.333Z"/><path fill="#EFEFEF" d="M808 333.333C808 334.4 811.067 343.2 814.8 353.2C818.667 363.2 823.733 377.067 826.133 384C830.267 395.733 830.8 396.667 834.133 396.667C838.667 396.667 840.4 393.467 849.467 368.533C853.2 358.267 856.667 349.467 857.333 348.8C858.8 347.333 860.933 352.533 869.733 377.867C873.467 388.667 877.333 398 878.267 398.267C880.933 399.333 885.067 395.067 886.8 389.467C887.6 386.8 893.067 373.467 898.8 359.733C911.067 330.933 911.2 330.133 905.2 333.333C901.733 335.2 900 339.067 892.667 360C889.2 369.867 885.6 379.467 884.667 381.333L882.933 384.533L880.667 379.333C879.467 376.4 875.333 364.933 871.6 354C865.333 335.467 863.733 332.133 861.067 332C858 332 854.4 339.067 848 357.733C840.267 380.533 838.267 384.667 836 381.333C835.333 380.267 831.333 369.067 827.2 356.667C823.067 344.133 819.6 333.867 819.467 333.733C819.333 333.6 816.667 333.067 813.6 332.533C809.467 331.867 808 332.133 808 333.333Z"/><path fill="#EFEFEF" d="M1158 333.2C1157.2 334.667 1160.53 343.2 1174.67 376.533L1184.27 399.067L1176.13 416C1171.6 425.2 1168 433.6 1168 434.4C1168 435.333 1169.2 436 1170.67 436C1173.73 436 1175.2 433.467 1182.53 415.2C1185.47 408 1194.67 386.667 1203.07 368C1211.47 349.333 1218.13 333.6 1217.73 333.067C1216.53 331.067 1212.13 332 1210.67 334.667C1209.87 336 1207.47 342.533 1205.2 348.933C1199.07 366.4 1190.4 385.6 1189.2 384.4C1188.67 383.867 1183.87 372.533 1178.8 359.467C1173.6 346.267 1168.67 334.8 1167.87 333.733C1166.13 331.733 1159.2 331.333 1158 333.2Z"/><path fill="#EFEFEF" d="M2165.6 352.267C2163.07 356.4 2156 375.6 2156 378.4C2156 379.067 2157.87 382 2160.13 384.8C2165.6 391.6 2173.33 407.067 2182.8 430L2190.53 448.667L2190.67 433.067C2190.67 416.667 2187.87 398.8 2182.8 382.667C2178.8 370 2170.13 348.133 2169.07 348C2168.67 348 2167.07 350 2165.6 352.267Z"/><path fill="#EFEFEF" d="M2209.47 355.333C2212.13 362.667 2217.47 388.4 2220.13 406C2229.2 468.133 2220.4 524.8 2194.4 571.2C2187.6 583.467 2174.53 602.933 2172.67 603.6C2171.87 603.867 2168.67 596.133 2165.47 586.533C2158.8 566.933 2146.93 541.467 2135.47 522.8C2118.4 494.667 2088.13 457.467 2058.8 428.533L2039.47 409.333L2042.67 405.867C2045.73 402.8 2045.73 402.267 2044 399.067C2041.47 394.8 2026.67 385.733 2009.07 377.867C1950.93 352.133 1890.53 346.4 1848.4 362.667C1815.2 375.467 1791.33 399.867 1771.87 440.667C1748.27 490.533 1737.2 554.267 1735.33 650.667L1734.53 687.333L1762.8 712.667C1798.93 745.333 1816.13 760.267 1816.8 759.733C1817.07 759.467 1816.27 756.667 1815.2 753.467C1812.13 744.667 1804.53 713.333 1800.8 694.667C1792.53 652.533 1788.8 614 1788.67 568.667C1788.67 519.733 1791.07 504.133 1802 482C1812.53 460.533 1826.4 446.8 1848.67 436C1865.2 428 1878.8 424.8 1897.33 424.8C1951.47 424.8 2008.93 456.267 2059.6 513.733C2092.8 551.333 2117.33 589.467 2148 650.667C2153.87 662.4 2159.47 672 2160.4 672C2162.67 672 2182.8 650.8 2193.47 636.933C2219.2 603.733 2239.2 560.667 2246.27 524C2248 514.4 2248.67 504.8 2248.53 484C2248.53 458.8 2248.27 455.467 2244.8 440.667C2242.8 431.867 2238.67 417.467 2235.87 408.667C2230.4 392 2215.73 360.533 2210.8 354.667L2208 351.333L2209.47 355.333Z"/><path fill="#EFEFEF" d="M1760 397.6C1734.13 414.8 1707.2 448.267 1689.87 484.8C1673.87 518.4 1657.33 580.533 1657.33 607.333V615.733L1685.47 641.6C1722.27 675.333 1723.87 676.667 1724.53 674.4C1724.93 673.467 1725.47 652.8 1725.87 628.667C1726.53 585.067 1728.67 553.2 1732.8 525.6C1739.6 479.333 1749.73 441.333 1764.4 407.867C1767.87 400 1770.67 393.2 1770.67 392.8C1770.67 391.067 1768 392.267 1760 397.6Z"/></svg>